<?plantuml 1.2026.1?><svg xmlns="http://www.w3.org/2000/svg" xmlns:xlink="http://www.w3.org/1999/xlink" contentStyleType="text/css" data-diagram-type="SEQUENCE" height="350px" preserveAspectRatio="none" style="width:827px;height:350px;background:#FFFFFF;" version="1.1" viewBox="0 0 827 350" width="827px" zoomAndPan="magnify"><defs/><g><g><title>. Initiator</title><rect fill="#FFFFFF" height="85.5625" style="stroke:#FFFFFF;stroke-width:1;" width="10" x="98.9136" y="46.2969"/><line style="stroke:#181818;stroke-width:1;" x1="98.9136" x2="98.9136" y1="46.2969" y2="131.8594"/><line style="stroke:#181818;stroke-width:1;" x1="108.9136" x2="108.9136" y1="46.2969" y2="131.8594"/><line style="stroke:#181818;stroke-width:1;" x1="98.9136" x2="108.9136" y1="46.2969" y2="46.2969"/></g><g><title>. Initiator</title><rect fill="#FFFFFF" height="152.6641" style="stroke:#FFFFFF;stroke-width:1;" width="10" x="98.9136" y="172.6641"/><line style="stroke:#181818;stroke-width:1;" x1="98.9136" x2="98.9136" y1="172.6641" y2="325.3281"/><line style="stroke:#181818;stroke-width:1;" x1="108.9136" x2="108.9136" y1="172.6641" y2="325.3281"/><line style="stroke:#181818;stroke-width:1;" x1="98.9136" x2="108.9136" y1="325.3281" y2="325.3281"/></g><g><title>. Initiator</title><rect fill="#FFFFFF" height="79.2656" style="stroke:#181818;stroke-width:1;" width="10" x="103.9136" y="246.0625"/></g><g><title>. Completion Handler</title><rect fill="#FFFFFF" height="39" style="stroke:#181818;stroke-width:1;" width="10" x="349.291" y="295.3281"/></g><g><title>. Service</title><rect fill="#FFFFFF" height="8" style="stroke:#FFFFFF;stroke-width:1;" width="10" x="598.209" y="123.8594"/><line style="stroke:#181818;stroke-width:1;" x1="598.209" x2="598.209" y1="123.8594" y2="131.8594"/><line style="stroke:#181818;stroke-width:1;" x1="608.209" x2="608.209" y1="123.8594" y2="131.8594"/><line style="stroke:#181818;stroke-width:1;" x1="598.209" x2="608.209" y1="123.8594" y2="123.8594"/></g><g><title>. Service</title><rect fill="#FFFFFF" height="36.2656" style="stroke:#FFFFFF;stroke-width:1;" width="10" x="598.209" y="172.6641"/><line style="stroke:#181818;stroke-width:1;" x1="598.209" x2="598.209" y1="172.6641" y2="208.9297"/><line style="stroke:#181818;stroke-width:1;" x1="608.209" x2="608.209" y1="172.6641" y2="208.9297"/><line style="stroke:#181818;stroke-width:1;" x1="598.209" x2="608.209" y1="208.9297" y2="208.9297"/></g><g class="participant-lifeline" data-entity-uid="part1" data-qualified-name="Initiator" id="part1-lifeline"><g><title>. Initiator</title><rect fill="#000000" fill-opacity="0.00000" height="95.5625" width="8" x="99.9136" y="36.2969"/><line style="stroke:#181818;stroke-width:0.5;stroke-dasharray:5,5;" x1="103" x2="103" y1="36.2969" y2="131.8594"/></g><line style="stroke:#181818;stroke-width:0.5;stroke-dasharray:1,4;" x1="103" x2="103" y1="131.8594" y2="172.6641"/><g><title>. Initiator</title><rect fill="#000000" fill-opacity="0.00000" height="170.6641" width="8" x="99.9136" y="172.6641"/><line style="stroke:#181818;stroke-width:0.5;stroke-dasharray:5,5;" x1="103" x2="103" y1="172.6641" y2="343.3281"/></g></g><g class="participant-lifeline" data-entity-uid="part2" data-qualified-name="Handler" id="part2-lifeline"><g><title>. Completion Handler</title><rect fill="#000000" fill-opacity="0.00000" height="95.5625" width="8" x="350.291" y="36.2969"/><line style="stroke:#181818;stroke-width:0.5;stroke-dasharray:5,5;" x1="353.8271" x2="353.8271" y1="36.2969" y2="131.8594"/></g><line style="stroke:#181818;stroke-width:0.5;stroke-dasharray:1,4;" x1="353.8271" x2="353.8271" y1="131.8594" y2="172.6641"/><g><title>. Completion Handler</title><rect fill="#000000" fill-opacity="0.00000" height="170.6641" width="8" x="350.291" y="172.6641"/><line style="stroke:#181818;stroke-width:0.5;stroke-dasharray:5,5;" x1="353.8271" x2="353.8271" y1="172.6641" y2="343.3281"/></g></g><g class="participant-lifeline" data-entity-uid="part3" data-qualified-name="Service" id="part3-lifeline"><g><title>. Service</title><rect fill="#000000" fill-opacity="0.00000" height="95.5625" width="8" x="599.209" y="36.2969"/><line style="stroke:#181818;stroke-width:0.5;stroke-dasharray:5,5;" x1="602.7549" x2="602.7549" y1="36.2969" y2="131.8594"/></g><line style="stroke:#181818;stroke-width:0.5;stroke-dasharray:1,4;" x1="602.7549" x2="602.7549" y1="131.8594" y2="172.6641"/><g><title>. Service</title><rect fill="#000000" fill-opacity="0.00000" height="170.6641" width="8" x="599.209" y="172.6641"/><line style="stroke:#181818;stroke-width:0.5;stroke-dasharray:5,5;" x1="602.7549" x2="602.7549" y1="172.6641" y2="343.3281"/></g></g><g class="participant-lifeline" data-entity-uid="part4" data-qualified-name="ACT" id="part4-lifeline"><g><title>. ACT</title><rect fill="#000000" fill-opacity="0.00000" height="54.9141" width="8" x="792.1987" y="76.9453"/><line style="stroke:#181818;stroke-width:0.5;stroke-dasharray:5,5;" x1="795.6631" x2="795.6631" y1="76.9453" y2="131.8594"/></g><line style="stroke:#181818;stroke-width:0.5;stroke-dasharray:1,4;" x1="795.6631" x2="795.6631" y1="131.8594" y2="172.6641"/><g><title>. ACT</title><rect fill="#000000" fill-opacity="0.00000" height="170.6641" width="8" x="792.1987" y="172.6641"/><line style="stroke:#181818;stroke-width:0.5;stroke-dasharray:5,5;" x1="795.6631" x2="795.6631" y1="172.6641" y2="343.3281"/></g></g><g class="participant participant-head" data-entity-uid="part1" data-qualified-name="Initiator" id="part1-head"><rect fill="#E2E2F0" height="30.2969" rx="2.5" ry="2.5" style="stroke:#181818;stroke-width:0.5;" width="77.8271" x="65" y="5"/><text fill="#000000" font-family="sans-serif" font-size="14" lengthAdjust="spacing" textLength="63.8271" x="72" y="24.9951">: Initiator</text></g><g class="participant participant-head" data-entity-uid="part2" data-qualified-name="Handler" id="part2-head"><rect fill="#E2E2F0" height="30.2969" rx="2.5" ry="2.5" style="stroke:#181818;stroke-width:0.5;" width="162.9277" x="272.8271" y="5"/><text fill="#000000" font-family="sans-serif" font-size="14" lengthAdjust="spacing" textLength="148.9277" x="279.8271" y="24.9951">: Completion Handler</text></g><g class="participant participant-head" data-entity-uid="part3" data-qualified-name="Service" id="part3-head"><rect fill="#E2E2F0" height="30.2969" rx="2.5" ry="2.5" style="stroke:#181818;stroke-width:0.5;" width="74.9082" x="565.7549" y="5"/><text fill="#000000" font-family="sans-serif" font-size="14" lengthAdjust="spacing" textLength="60.9082" x="572.7549" y="24.9951">: Service</text></g><g><title>. Initiator</title><rect fill="#FFFFFF" height="85.5625" style="stroke:#FFFFFF;stroke-width:1;" width="10" x="98.9136" y="46.2969"/><line style="stroke:#181818;stroke-width:1;" x1="98.9136" x2="98.9136" y1="46.2969" y2="131.8594"/><line style="stroke:#181818;stroke-width:1;" x1="108.9136" x2="108.9136" y1="46.2969" y2="131.8594"/><line style="stroke:#181818;stroke-width:1;" x1="98.9136" x2="108.9136" y1="46.2969" y2="46.2969"/></g><g><title>. Initiator</title><rect fill="#FFFFFF" height="152.6641" style="stroke:#FFFFFF;stroke-width:1;" width="10" x="98.9136" y="172.6641"/><line style="stroke:#181818;stroke-width:1;" x1="98.9136" x2="98.9136" y1="172.6641" y2="325.3281"/><line style="stroke:#181818;stroke-width:1;" x1="108.9136" x2="108.9136" y1="172.6641" y2="325.3281"/><line style="stroke:#181818;stroke-width:1;" x1="98.9136" x2="108.9136" y1="325.3281" y2="325.3281"/></g><g><title>. Initiator</title><rect fill="#FFFFFF" height="79.2656" style="stroke:#181818;stroke-width:1;" width="10" x="103.9136" y="246.0625"/></g><g><title>. Completion Handler</title><rect fill="#FFFFFF" height="39" style="stroke:#181818;stroke-width:1;" width="10" x="349.291" y="295.3281"/></g><g><title>. Service</title><rect fill="#FFFFFF" height="8" style="stroke:#FFFFFF;stroke-width:1;" width="10" x="598.209" y="123.8594"/><line style="stroke:#181818;stroke-width:1;" x1="598.209" x2="598.209" y1="123.8594" y2="131.8594"/><line style="stroke:#181818;stroke-width:1;" x1="608.209" x2="608.209" y1="123.8594" y2="131.8594"/><line style="stroke:#181818;stroke-width:1;" x1="598.209" x2="608.209" y1="123.8594" y2="123.8594"/></g><g><title>. Service</title><rect fill="#FFFFFF" height="36.2656" style="stroke:#FFFFFF;stroke-width:1;" width="10" x="598.209" y="172.6641"/><line style="stroke:#181818;stroke-width:1;" x1="598.209" x2="598.209" y1="172.6641" y2="208.9297"/><line style="stroke:#181818;stroke-width:1;" x1="608.209" x2="608.209" y1="172.6641" y2="208.9297"/><line style="stroke:#181818;stroke-width:1;" x1="598.209" x2="608.209" y1="208.9297" y2="208.9297"/></g><g class="message" data-entity-1="part1" data-entity-2="part4" id="msg1"><polygon fill="#181818" points="758.6631,63.4297,768.6631,67.4297,758.6631,71.4297" style="stroke:#181818;stroke-width:1;"/><line style="stroke:#181818;stroke-width:1;" x1="108.9136" x2="764.6631" y1="67.4297" y2="67.4297"/><text fill="#000000" font-family="sans-serif" font-size="13" lengthAdjust="spacing" textLength="51.6953" x="115.9136" y="62.3638">create()</text></g><rect fill="#E2E2F0" height="30.2969" rx="2.5" ry="2.5" style="stroke:#181818;stroke-width:0.5;" width="51.0713" x="770.6631" y="46.2969"/><text fill="#000000" font-family="sans-serif" font-size="14" lengthAdjust="spacing" textLength="37.0713" x="777.6631" y="66.292">: ACT</text><g class="message" data-entity-1="part1" data-entity-2="part3" id="msg3"><polygon fill="#181818" points="586.209,119.8594,596.209,123.8594,586.209,127.8594" style="stroke:#181818;stroke-width:1;"/><line style="stroke:#181818;stroke-width:1;" x1="108.9136" x2="592.209" y1="123.8594" y2="123.8594"/><text fill="#000000" font-family="sans-serif" font-size="13" lengthAdjust="spacing" textLength="72.5601" x="115.9136" y="103.6606">operation()</text><text fill="#000000" font-family="sans-serif" font-size="13" lengthAdjust="spacing" textLength="36.0547" x="115.9136" y="118.7935">[ACT]</text></g><text fill="#000000" font-family="sans-serif" font-size="11" lengthAdjust="spacing" textLength="140.5078" x="379.8022" y="156.0698">Other initiator processing</text><g class="message" data-entity-1="part3" data-entity-2="part1" id="msg4"><polygon fill="#181818" points="119.9136,204.9297,109.9136,208.9297,119.9136,212.9297" style="stroke:#181818;stroke-width:1;"/><line style="stroke:#181818;stroke-width:1;" x1="113.9136" x2="602.209" y1="208.9297" y2="208.9297"/><text fill="#000000" font-family="sans-serif" font-size="13" lengthAdjust="spacing" textLength="47.3154" x="125.9136" y="188.731">notify()</text><text fill="#000000" font-family="sans-serif" font-size="13" lengthAdjust="spacing" textLength="81.3833" x="125.9136" y="203.8638">[ACT, result]</text></g><g class="message" data-entity-1="part1" data-entity-2="part1" id="msg5"><line style="stroke:#181818;stroke-width:1;" x1="108.9136" x2="155.9136" y1="233.0625" y2="233.0625"/><line style="stroke:#181818;stroke-width:1;" x1="155.9136" x2="155.9136" y1="233.0625" y2="246.0625"/><line style="stroke:#181818;stroke-width:1;" x1="114.9136" x2="155.9136" y1="246.0625" y2="246.0625"/><polygon fill="#181818" points="124.9136,242.0625,114.9136,246.0625,124.9136,250.0625" style="stroke:#181818;stroke-width:1;"/><text fill="#000000" font-family="sans-serif" font-size="13" lengthAdjust="spacing" textLength="129.1875" x="120.9136" y="227.9966">completion_action()</text></g><g class="message" data-entity-1="part1" data-entity-2="part2" id="msg6"><polygon fill="#181818" points="337.291,291.3281,347.291,295.3281,337.291,299.3281" style="stroke:#181818;stroke-width:1;"/><line style="stroke:#181818;stroke-width:1;" x1="113.9136" x2="343.291" y1="295.3281" y2="295.3281"/><text fill="#000000" font-family="sans-serif" font-size="13" lengthAdjust="spacing" textLength="103.9492" x="120.9136" y="275.1294">process_result()</text><text fill="#000000" font-family="sans-serif" font-size="13" lengthAdjust="spacing" textLength="47.2075" x="120.9136" y="290.2622">[result]</text></g><?plantuml-src XL8zJyCm4DtzAqui1OaM9eOCIAWBJ5IY6o1qSexqX6D7jbif_7hESHAt1Oabojszy_kmmnVR3Zss469lIBwUTTotHeLvia4VMNE7DcwmhjasS7UhL5VQS571a-N869s_00obEeUjNTiPYkmiFAAj3MNy-7-EVY5_O4q3PFnN2dNa0qOw8b6BKa3TMsnPep4zQ4-2311t10_hhSerdD78PA18Y7BEyZureCexbrU9PODXW2Kqmf0FHT5ziZKgXGfSHnwJsSkhD_igU-z5_Und0LjHzytDyXiRC6m9sDPY8AQe4qi8s12uJuZSqWs6tkgTTzRj0tJUQGf1a6grMi6p6FMoFgafOv1nufh4wNmHaer43zP5_kGng9Bh11PJnM6LqVtawHeyXRs9xwgclzoLpTrmovc4hUHcqKn2qej8sywUXddCMw0V6IgNykzh84FD_0QoKeXkg7u_nbFkiIdCOuuVUNzmFfcU1Kn77CTGHFtL_040?></g></svg>