<?plantuml 1.2026.1?><svg xmlns="http://www.w3.org/2000/svg" xmlns:xlink="http://www.w3.org/1999/xlink" contentStyleType="text/css" data-diagram-type="CLASS" height="327px" preserveAspectRatio="none" style="width:1526px;height:327px;background:#FFFFFF;" version="1.1" viewBox="0 0 1526 327" width="1526px" zoomAndPan="magnify"><defs/><g><!--class Initiator--><g class="entity" data-qualified-name="Initiator" data-source-line="7" id="ent0002"><rect fill="#F1F1F1" height="42.2969" rx="2.5" ry="2.5" style="stroke:#181818;stroke-width:0.5;" width="242.1816" x="230.24" y="7"/><text fill="#000000" font-family="sans-serif" font-size="14" lengthAdjust="spacing" textLength="54.6602" x="324.0007" y="24.9951">Initiator</text><line style="stroke:#181818;stroke-width:0.5;" x1="231.24" x2="471.4216" y1="33.2969" y2="33.2969"/><line style="stroke:#181818;stroke-width:0.5;" x1="231.24" x2="471.4216" y1="41.2969" y2="41.2969"/></g><!--class AsynchronousOperationProcessor--><g class="entity" data-qualified-name="AsynchronousOperationProcessor" data-source-line="9" id="ent0003"><rect fill="#F1F1F1" height="58.5938" rx="2.5" ry="2.5" style="stroke:#181818;stroke-width:0.5;" width="242.1816" x="115.24" y="126.29"/><text fill="#000000" font-family="sans-serif" font-size="14" lengthAdjust="spacing" textLength="236.1816" x="118.24" y="144.2851">AsynchronousOperationProcessor</text><line style="stroke:#181818;stroke-width:0.5;" x1="116.24" x2="356.4216" y1="152.5869" y2="152.5869"/><line style="stroke:#181818;stroke-width:0.5;" x1="116.24" x2="356.4216" y1="160.5869" y2="160.5869"/><g data-visibility-modifier="PUBLIC_METHOD"><ellipse cx="126.24" cy="174.2353" fill="#84BE84" rx="3" ry="3" style="stroke:#038048;stroke-width:1;"/></g><text fill="#000000" font-family="sans-serif" font-size="14" lengthAdjust="spacing" textLength="189.0547" x="135.24" y="177.582">execute_async_operation()</text></g><!--class AsynchronousOperation--><g class="entity" data-qualified-name="AsynchronousOperation" data-source-line="13" id="ent0004"><rect fill="#F1F1F1" height="58.5938" rx="2.5" ry="2.5" style="stroke:#181818;stroke-width:0.5;" width="242.1816" x="490.24" y="126.29"/><text fill="#000000" font-family="sans-serif" font-size="14" lengthAdjust="spacing" textLength="168.1982" x="527.2317" y="144.2851">AsynchronousOperation</text><line style="stroke:#181818;stroke-width:0.5;" x1="491.24" x2="731.4216" y1="152.5869" y2="152.5869"/><line style="stroke:#181818;stroke-width:0.5;" x1="491.24" x2="731.4216" y1="160.5869" y2="160.5869"/><g data-visibility-modifier="PUBLIC_METHOD"><ellipse cx="501.24" cy="174.2353" fill="#84BE84" rx="3" ry="3" style="stroke:#038048;stroke-width:1;"/></g><text fill="#000000" font-family="sans-serif" font-size="14" lengthAdjust="spacing" textLength="125.8701" x="510.24" y="177.582">async_operation()</text></g><!--class CompletionEventQueue--><g class="entity" data-qualified-name="CompletionEventQueue" data-source-line="17" id="ent0005"><rect fill="#F1F1F1" height="42.2969" rx="2.5" ry="2.5" style="stroke:#181818;stroke-width:0.5;" width="242.1816" x="115.24" y="270.03"/><text fill="#000000" font-family="sans-serif" font-size="14" lengthAdjust="spacing" textLength="166.2842" x="153.1887" y="288.0251">CompletionEventQueue</text><line style="stroke:#181818;stroke-width:0.5;" x1="116.24" x2="356.4216" y1="296.3269" y2="296.3269"/><line style="stroke:#181818;stroke-width:0.5;" x1="116.24" x2="356.4216" y1="304.3269" y2="304.3269"/></g><!--class AsynchronousEventDemuxer--><g class="entity" data-qualified-name="AsynchronousEventDemuxer" data-source-line="19" id="ent0006"><rect fill="#F1F1F1" height="58.5938" rx="2.5" ry="2.5" style="stroke:#181818;stroke-width:0.5;" width="242.1816" x="523.24" y="261.89"/><text fill="#000000" font-family="sans-serif" font-size="14" lengthAdjust="spacing" textLength="203.1914" x="542.7351" y="279.8851">AsynchronousEventDemuxer</text><line style="stroke:#181818;stroke-width:0.5;" x1="524.24" x2="764.4216" y1="288.1869" y2="288.1869"/><line style="stroke:#181818;stroke-width:0.5;" x1="524.24" x2="764.4216" y1="296.1869" y2="296.1869"/><g data-visibility-modifier="PUBLIC_METHOD"><ellipse cx="534.24" cy="309.8353" fill="#84BE84" rx="3" ry="3" style="stroke:#038048;stroke-width:1;"/></g><text fill="#000000" font-family="sans-serif" font-size="14" lengthAdjust="spacing" textLength="165.8945" x="543.24" y="313.182">get_completion_event()</text></g><!--class Proactor--><g class="entity" data-qualified-name="Proactor" data-source-line="23" id="ent0007"><rect fill="#F1F1F1" height="58.5938" rx="2.5" ry="2.5" style="stroke:#181818;stroke-width:0.5;" width="242.1816" x="951.24" y="261.89"/><text fill="#000000" font-family="sans-serif" font-size="14" lengthAdjust="spacing" textLength="58.8506" x="1042.9055" y="279.8851">Proactor</text><line style="stroke:#181818;stroke-width:0.5;" x1="952.24" x2="1192.4216" y1="288.1869" y2="288.1869"/><line style="stroke:#181818;stroke-width:0.5;" x1="952.24" x2="1192.4216" y1="296.1869" y2="296.1869"/><g data-visibility-modifier="PUBLIC_METHOD"><ellipse cx="962.24" cy="309.8353" fill="#84BE84" rx="3" ry="3" style="stroke:#038048;stroke-width:1;"/></g><text fill="#000000" font-family="sans-serif" font-size="14" lengthAdjust="spacing" textLength="112.8066" x="971.24" y="313.182">handle_events()</text></g><!--class Handle--><g class="entity" data-qualified-name="Handle" data-source-line="27" id="ent0008"><rect fill="#F1F1F1" height="42.2969" rx="2.5" ry="2.5" style="stroke:#181818;stroke-width:0.5;" width="242.1816" x="884.24" y="134.44"/><text fill="#000000" font-family="sans-serif" font-size="14" lengthAdjust="spacing" textLength="49.3691" x="980.6463" y="152.4351">Handle</text><line style="stroke:#181818;stroke-width:0.5;" x1="885.24" x2="1125.4216" y1="160.7369" y2="160.7369"/><line style="stroke:#181818;stroke-width:0.5;" x1="885.24" x2="1125.4216" y1="168.7369" y2="168.7369"/></g><!--class CompletionHandler--><g class="entity" data-qualified-name="CompletionHandler" data-source-line="29" id="ent0009"><rect fill="#F1F1F1" height="58.5938" rx="2.5" ry="2.5" style="stroke:#181818;stroke-width:0.5;" width="242.1816" x="1278.24" y="126.29"/><text fill="#000000" font-family="sans-serif" font-size="14" lengthAdjust="spacing" textLength="135.3105" x="1331.6755" y="144.2851">CompletionHandler</text><line style="stroke:#181818;stroke-width:0.5;" x1="1279.24" x2="1519.4216" y1="152.5869" y2="152.5869"/><line style="stroke:#181818;stroke-width:0.5;" x1="1279.24" x2="1519.4216" y1="160.5869" y2="160.5869"/><g data-visibility-modifier="PUBLIC_METHOD"><ellipse cx="1289.24" cy="174.2353" fill="#84BE84" rx="3" ry="3" style="stroke:#038048;stroke-width:1;"/></g><text fill="#000000" font-family="sans-serif" font-size="14" lengthAdjust="spacing" textLength="105.5127" x="1298.24" y="177.582">handle_event()</text></g><!--class ConcreteCompletionHandler--><g class="entity" data-qualified-name="ConcreteCompletionHandler" data-source-line="33" id="ent0010"><rect fill="#F1F1F1" height="42.2969" rx="2.5" ry="2.5" style="stroke:#181818;stroke-width:0.5;" width="242.1816" x="1278.24" y="270.03"/><text fill="#000000" font-family="sans-serif" font-size="14" lengthAdjust="spacing" textLength="198.6934" x="1299.9841" y="288.0251">ConcreteCompletionHandler</text><line style="stroke:#181818;stroke-width:0.5;" x1="1279.24" x2="1519.4216" y1="296.3269" y2="296.3269"/><line style="stroke:#181818;stroke-width:0.5;" x1="1279.24" x2="1519.4216" y1="304.3269" y2="304.3269"/></g><!--link Initiator to AsynchronousOperationProcessor--><g class="link" data-entity-1="ent0002" data-entity-2="ent0003" data-link-type="dependency" data-source-line="35" id="lnk11"><path codeLine="35" d="M332.59,49.58 C313.5,70.41 287.7847,98.4574 266.4047,121.7774" fill="none" id="Initiator-to-AsynchronousOperationProcessor" style="stroke:#181818;stroke-width:1;"/><polygon fill="#181818" points="262.35,126.2,271.3804,122.2692,265.7289,122.5145,265.4836,116.863,262.35,126.2" style="stroke:#181818;stroke-width:1;"/><text fill="#000000" font-family="sans-serif" font-size="13" lengthAdjust="spacing" textLength="45.6904" x="305.33" y="92.3569">&#171;uses&#187;</text></g><!--link Initiator to AsynchronousOperation--><g class="link" data-entity-1="ent0002" data-entity-2="ent0004" data-link-type="dependency" data-source-line="36" id="lnk12"><path codeLine="36" d="M393.97,49.72 C436.9,70.43 498.0863,99.9524 546.2463,123.1924" fill="none" id="Initiator-to-AsynchronousOperation" style="stroke:#181818;stroke-width:1;"/><polygon fill="#181818" points="551.65,125.8,545.2828,118.2861,547.1469,123.627,541.806,125.4911,551.65,125.8" style="stroke:#181818;stroke-width:1;"/><text fill="#000000" font-family="sans-serif" font-size="13" lengthAdjust="spacing" textLength="65.7046" x="490.33" y="92.3569">&#171;invokes&#187;</text></g><!--link Initiator to CompletionHandler--><g class="link" data-entity-1="ent0002" data-entity-2="ent0009" data-link-type="dependency" data-source-line="37" id="lnk13"><path codeLine="37" d="M472.83,43.69 C674.58,67.84 1070.4525,115.227 1272.0725,139.357" fill="none" id="Initiator-to-CompletionHandler" style="stroke:#181818;stroke-width:1;"/><polygon fill="#181818" points="1278.03,140.07,1269.5691,135.0288,1273.0654,139.4758,1268.6184,142.9722,1278.03,140.07" style="stroke:#181818;stroke-width:1;"/><text fill="#000000" font-family="sans-serif" font-size="13" lengthAdjust="spacing" textLength="45.6904" x="908.33" y="92.3569">&#171;uses&#187;</text></g><!--link Initiator to CompletionEventQueue--><g class="link" data-entity-1="ent0002" data-entity-2="ent0005" data-link-type="dependency" data-source-line="38" id="lnk14"><path codeLine="38" d="M229.95,35.4 C165.48,45.66 91.29,70.03 50.33,126.29 C6,187.18 103.6281,239.1594 173.3681,267.3794" fill="none" id="Initiator-to-CompletionEventQueue" style="stroke:#181818;stroke-width:1;"/><polygon fill="#181818" points="178.93,269.63,172.0875,262.5462,174.2951,267.7545,169.0867,269.962,178.93,269.63" style="stroke:#181818;stroke-width:1;"/><text fill="#000000" font-family="sans-serif" font-size="13" lengthAdjust="spacing" textLength="45.6904" x="51.33" y="160.1569">&#171;uses&#187;</text></g><!--link AsynchronousOperationProcessor to AsynchronousOperation--><g class="link" data-entity-1="ent0003" data-entity-2="ent0004" data-link-type="dependency" data-source-line="40" id="lnk15"><path codeLine="40" d="M357.82,155.59 C400.18,155.59 441.69,155.59 484.03,155.59" fill="none" id="AsynchronousOperationProcessor-to-AsynchronousOperation" style="stroke:#181818;stroke-width:1;stroke-dasharray:7,7;"/><polygon fill="#181818" points="490.03,155.59,481.03,151.59,485.03,155.59,481.03,159.59,490.03,155.59" style="stroke:#181818;stroke-width:1;"/><text fill="#000000" font-family="sans-serif" font-size="13" lengthAdjust="spacing" textLength="96.4019" x="375.83" y="148.6569">&#171;concurrency&#187;</text></g><!--link AsynchronousOperation to Handle--><g class="link" data-entity-1="ent0004" data-entity-2="ent0008" data-link-type="dependency" data-source-line="41" id="lnk16"><path codeLine="41" d="M732.75,155.59 C780.8,155.59 829.92,155.59 877.96,155.59" fill="none" id="AsynchronousOperation-to-Handle" style="stroke:#181818;stroke-width:1;"/><polygon fill="#181818" points="883.96,155.59,874.96,151.59,878.96,155.59,874.96,159.59,883.96,155.59" style="stroke:#181818;stroke-width:1;"/><text fill="#000000" font-family="sans-serif" font-size="13" lengthAdjust="spacing" textLength="115.7686" x="750.83" y="148.6569">is associated with</text></g><!--link Handle to CompletionHandler--><g class="link" data-entity-1="ent0008" data-entity-2="ent0009" data-link-type="dependency" data-source-line="42" id="lnk17"><path codeLine="42" d="M1126.75,155.59 C1174.8,155.59 1223.92,155.59 1271.96,155.59" fill="none" id="Handle-to-CompletionHandler" style="stroke:#181818;stroke-width:1;"/><polygon fill="#181818" points="1277.96,155.59,1268.96,151.59,1272.96,155.59,1268.96,159.59,1277.96,155.59" style="stroke:#181818;stroke-width:1;"/><text fill="#000000" font-family="sans-serif" font-size="13" lengthAdjust="spacing" textLength="115.7686" x="1144.83" y="148.6569">is associated with</text></g><!--link AsynchronousOperationProcessor to CompletionEventQueue--><g class="link" data-entity-1="ent0003" data-entity-2="ent0005" data-link-type="dependency" data-source-line="44" id="lnk18"><path codeLine="44" d="M236.33,185.25 C236.33,210.7 236.33,241.27 236.33,263.83" fill="none" id="AsynchronousOperationProcessor-to-CompletionEventQueue" style="stroke:#181818;stroke-width:1;"/><polygon fill="#181818" points="236.33,269.83,240.33,260.83,236.33,264.83,232.33,260.83,236.33,269.83" style="stroke:#181818;stroke-width:1;"/><text fill="#000000" font-family="sans-serif" font-size="13" lengthAdjust="spacing" textLength="79.644" x="237.33" y="227.9569">&#171;enqueues&#187;</text></g><!--reverse link CompletionEventQueue to AsynchronousEventDemuxer--><g class="link" data-entity-1="ent0005" data-entity-2="ent0006" data-link-type="dependency" data-source-line="45" id="lnk20"><path codeLine="45" d="M363.91,291.18 C416.05,291.18 470.82,291.18 522.94,291.18" fill="none" id="CompletionEventQueue-backto-AsynchronousEventDemuxer" style="stroke:#181818;stroke-width:1;"/><polygon fill="#181818" points="357.91,291.18,366.91,295.18,362.91,291.18,366.91,287.18,357.91,291.18" style="stroke:#181818;stroke-width:1;"/><text fill="#000000" font-family="sans-serif" font-size="13" lengthAdjust="spacing" textLength="79.6567" x="400.83" y="284.2469">&#171;dequeues&#187;</text></g><!--reverse link AsynchronousEventDemuxer to Proactor--><g class="link" data-entity-1="ent0006" data-entity-2="ent0007" data-link-type="dependency" data-source-line="47" id="lnk22"><path codeLine="47" d="M771.83,291.18 C829.78,291.18 892.95,291.18 950.89,291.18" fill="none" id="AsynchronousEventDemuxer-backto-Proactor" style="stroke:#181818;stroke-width:1;"/><polygon fill="#181818" points="765.83,291.18,774.83,295.18,770.83,291.18,774.83,287.18,765.83,291.18" style="stroke:#181818;stroke-width:1;"/><text fill="#000000" font-family="sans-serif" font-size="13" lengthAdjust="spacing" textLength="49.8228" x="833.83" y="284.2469">&#171;uses &#187;</text></g><!--reverse link CompletionHandler to Proactor--><g class="link" data-entity-1="ent0009" data-entity-2="ent0007" data-link-type="dependency" data-source-line="48" id="lnk24"><path codeLine="48" d="M1271.9776,185.297 C1242.4276,193.677 1217.12,202.43 1189.33,214.89 C1161.44,227.38 1132.55,245.91 1110.45,261.47" fill="none" id="CompletionHandler-backto-Proactor" style="stroke:#181818;stroke-width:1;"/><polygon fill="#181818" points="1277.75,183.66,1268.0001,182.2672,1272.9397,185.0241,1270.1828,189.9637,1277.75,183.66" style="stroke:#181818;stroke-width:1;"/><text fill="#000000" font-family="sans-serif" font-size="13" lengthAdjust="spacing" textLength="200.3511" x="1190.33" y="227.9569">&#171;demultiplexes &amp; dispatches &#187;</text></g><!--reverse link CompletionHandler to ConcreteCompletionHandler--><g class="link" data-entity-1="ent0009" data-entity-2="ent0010" data-link-type="extension" data-source-line="50" id="lnk26"><path codeLine="50" d="M1399.33,203.25 C1399.33,228.7 1399.33,247.27 1399.33,269.83" fill="none" id="CompletionHandler-backto-ConcreteCompletionHandler" style="stroke:#181818;stroke-width:1;"/><polygon fill="none" points="1399.33,185.25,1393.33,203.25,1405.33,203.25,1399.33,185.25" style="stroke:#181818;stroke-width:1;"/></g><?plantuml-src ZPBBJiCm44Nt_WglU0YbQiKELPLGGO8Li68PMVRGM4tiu1dt8U3VSPAcIMaUR2BPSy_DdHdZMfjSE95nf7qAuUkq99-b39kAo62P2iHthIZXv3omIzxKZLM0aFFPj0LbshIOsUsKCLcS-RFHf0LPLr_Suzx8n5bZFRxau0HfQrwTbO1e7VzYdD_03gGdY4MXZMsjkhfcFuCs5Jr0BMsMfr3SFcx0q9k7q5o7OrbzWCplu11f1HJB8nr38MWxXmw4fBg1H1YLGgN2jkofB9p7gUuxwDFqHZeWECCOEuwPHyfkJRGOc_CTdy-vHq2-MFoNhY1jDdRTnvrtDFAZhesSCcoaaudJguGcWvbbc9nt3epS5vRTogWq2fcgw87KoCFShGoHGV6jfeGTQaTjLyCTs5WJu-C0yraSy6_-awSQfV11WpOA6XjsVBGrrslSRAG06yxd_KjNWKr9Xz8kS1TSQSm5oUHWmdgVSsdxtU7Bs2y0?></g></svg>